<?xml version="1.0" encoding="utf-8"?>
<!-- Generator: Adobe Illustrator 26.1.0, SVG Export Plug-In . SVG Version: 6.00 Build 0)  -->
<svg version="1.1" id="Layer_1" xmlns="http://www.w3.org/2000/svg" xmlns:xlink="http://www.w3.org/1999/xlink" x="0px" y="0px"
	 viewBox="0 0 595.3 841.9" style="enable-background:new 0 0 595.3 841.9;" xml:space="preserve">
<style type="text/css">
	.st0{fill:#FFFFFF;stroke:#000000;stroke-miterlimit:10;}
	.st1{fill:none;stroke:#000000;stroke-miterlimit:10;}
	.st2{stroke:#000000;stroke-miterlimit:10;}
</style>
<circle class="st0" cx="95" cy="74" r="48"/>
<path class="st0" d="M80.5,65.5l4.3,37.1c0,0,9.5,4.9,22.5,0.6l5-38.2c0,0,1.6-0.5,1.9-1.1c0.3-0.6-0.7-3.1-0.7-3.1
	s1.6,3.4-15.4,3.2s-20-2.6-20-2.6v2.6L80.5,65.5z"/>
<path class="st0" d="M111,56.8c0,0-12.6,3.9-29.7,0C81.3,56.8,96.3,50.6,111,56.8z"/>
<path class="st1" d="M78.1,61.5c0,0,3.2-0.3,3.2-4.7"/>
<path class="st1" d="M111,56.8c0,0-0.7,4,2.5,4.1"/>
<path class="st2" d="M81.5,74c0,0,10.5,3.5,29.5,0.8l-2.2,17c0,0-9.8,4.9-25.3,0L81.5,74z"/>
<path class="st0" d="M96.5,90.2c0,0,4.1-3.8,5.9-6.4c1.8-2.5-2-8.8-5.9-3.3c0,0-2.3-2.3-4-2c-1.8,0.3-2.9,1.9-2.6,3.3
	c0.3,1.4,1.4,2.5,2.1,3.3C92.8,86.1,96.5,90.2,96.5,90.2z"/>
<path class="st1" d="M90.5,36.8c-0.2,0.5-0.6,0.9-1,1.3c-0.3,0.4-0.6,1-0.5,1.5c0.1,0.2,0.2,0.4,0.3,0.6c0.3,0.5,0.7,1,1,1.5
	c0.3,0.5,0.7,1,0.8,1.6c0.2,1.1-0.5,2.2-1.4,2.8c-0.7,0.5-1.6,0.9-1.8,1.7c-0.2,0.7,0.4,1.5,0.9,2c0.5,0.5,1,0.9,1.2,1.5"/>
<path class="st1" d="M95.1,41.4c0.4,0.6,0.7,1.2,0.7,1.9c-0.1,1.3-1.7,2-1.8,3.3c-0.1,0.6,0.2,1.2,0.5,1.7c0.2,0.3,0.5,0.6,0.5,0.9
	c0.1,0.4,0,0.9-0.2,1.3c-0.2,0.4-0.3,0.9-0.7,1.1"/>
</svg>
