<?xml version="1.0" encoding="utf-8"?>
<!-- Generator: Adobe Illustrator 26.1.0, SVG Export Plug-In . SVG Version: 6.00 Build 0)  -->
<svg version="1.1" id="Layer_1" xmlns="http://www.w3.org/2000/svg" xmlns:xlink="http://www.w3.org/1999/xlink" x="0px" y="0px"
	 viewBox="0 0 595.3 841.9" style="enable-background:new 0 0 595.3 841.9;" xml:space="preserve">
<style type="text/css">
	.st0{fill:#FFFFFF;stroke:#000000;stroke-miterlimit:10;}
	.st1{fill:#F05029;}
	.st2{fill:#F9A039;}
	.st3{fill:#FEDE57;}
	.st4{fill:#FAF8CF;}
	.st5{fill:#F05028;}
</style>
<circle class="st0" cx="124.1" cy="85.9" r="48"/>
<path class="st1" d="M109.5,87.8c0,0-1.2,0.8,0-4.2c1.2-5-3,5.2-4.1,7.9c-1.2,2.7,0.2,18.8,14.3,22c14.1,3.2,20.8-10.2,20.8-10.2
	s3.9-6.8,2-14.3c-2-7.4-6.5-15.1-6.5-15.1l-0.7,7.5c0,0-2.2-0.8-3-4.8c-0.9-4-0.1-10.4-2.3-13.3c-2.2-2.9-6.5-5.6-6.5-5.6
	s2.9,12.1,0.9,14.8c-2.4,3.2-5.4,2.1-6.5-1.1c0,0-5.9,8.6-2.7,12.2C118.1,87.3,109.5,87.8,109.5,87.8z"/>
<path class="st2" d="M123.3,77.6c0,0,18.2,14.6,8.7,33.1c0,0-1.2,2.8-6.9,3.2c-5.7,0.4-10.7-2.9-12.9-6c-2.6-3.5-2.4-14.9,0.4-18
	c0,0,4.6,5.4,5.2,5.9C120.4,98,127.8,82.1,123.3,77.6z"/>
<path class="st3" d="M125.1,94.7c0,0-1.5,10.9-4.4,11.2c0,0-1.3,0.7-1.3-1.7c0,0-3,3.2-0.5,7.5c2.5,4.3,10.6,1,10.6,1
	s4.3-4.3-0.7-11.3l-1.5,3.2L125.1,94.7z"/>
<path class="st4" d="M124.3,114c0.9,0,4.7-0.7,4.4-6.8c0,0-1.4,2.3-2,2.1s-1.7-5.8-1.7-5.8s-0.4,5.8-2.1,6.2s-2.5-0.3-2.5-0.3
	s-0.1,4.2,1.9,4.6C123.1,114.1,123.9,114,124.3,114z"/>
<path class="st5" d="M111.4,75.2c0,0-1.4,1-1.4,2.1c0.1,1.1,1.1,1.9,1.1,1.9s0.8-1.2,0.7-2C111.7,76.4,111.4,75.2,111.4,75.2z"/>
<path class="st5" d="M118.8,60.7c0,0-1.4,1.7-1.2,2.5c0.2,0.8,0.3,1.4,1,2.4C119.2,66.7,118.8,60.7,118.8,60.7z"/>
<path class="st5" d="M135,67.5c0,0-1,1.1-1,1.8c0,0.7,1,1.7,1,1.7s0.8-1.3,0.6-1.8S135,67.5,135,67.5z"/>
</svg>
