<?xml version="1.0" encoding="utf-8"?>
<!-- Generator: Adobe Illustrator 26.1.0, SVG Export Plug-In . SVG Version: 6.00 Build 0)  -->
<svg version="1.1" id="Layer_1" xmlns="http://www.w3.org/2000/svg" xmlns:xlink="http://www.w3.org/1999/xlink" x="0px" y="0px"
	 viewBox="0 0 595.3 841.9" style="enable-background:new 0 0 595.3 841.9;" xml:space="preserve">
<style type="text/css">
	.st0{fill:#FFFFFF;stroke:#000000;stroke-miterlimit:10;}
	.st1{fill:#00A651;stroke:#000000;stroke-miterlimit:10;}
	.st2{fill:#FFFFFF;}
	.st3{fill:#FFFFFF;stroke:#000000;stroke-width:1.000000e-02;stroke-miterlimit:10;}
</style>
<circle class="st0" cx="89" cy="84.8" r="48"/>
<g>
	<path class="st1" d="M134.3,95.4l-89.5,0.5l-0.2-5c0,0,2.6,2.8,4,2.5c1.4-0.3,6-8.5-5.6-14.7c0,0,3.9-2.4,9.9,8.6
		c0,0,2.3-5.6,4.9-6.8c0,0-2.1-6.3-14.8-6.6c0,0,2.9-2.9,9.4-2.4c6.5,0.5,16.8,16.7,16.8,16.7s1.5-6-0.2-8.2
		c-1.7-2.1-5.5-5.8-5.5-5.8s7.9,3.8,8.9,9.8c0,0,3.6-11.7,5.5-11.3l-0.3,15.2c0,0,3.7-6.8,5.5-7s-5.3-12.6-5.3-12.6
		S88,76.1,87.9,87.9c0,0,2.8-9.7,0.4-14.9c0,0,6.6,8.9,5.1,18.6l1.7,0.1l6.4-11.5c0,0-2.3-9.7-5.1-11.4c0,0,6.2,2.8,7.7,7.7
		c0,0,7.4-9.5,19.5-3.3c0,0-14.9,1.5-17.9,9.8c0,0-0.6,5.9,1.3,8l0.9,0c0,0,1.7-10.2,8.2-11l-3.6,4.2l3.7,4.4c0,0,10-15.8,12.6-16
		c0,0-9.9,15.6-4.8,18.6c0,0,5.1-11,9.3-9.7c0,0-5,5-5.1,7.4C128.1,91.3,134.3,95.4,134.3,95.4z"/>
	<path class="st2" d="M111.5,86.3c0,0-2.5,4.2-2.3,5.1c0.3,0.9-1.5,2.5,2.9,2.5c4.3,0.1,2.1-3.4,2.1-3.4L111.5,86.3z"/>
	<path class="st3" d="M83,82.6c0,0-4.1,6.6-2.3,8.7s2.6,1.1,2.6,1.1L83,82.6z"/>
	<path class="st3" d="M58.9,80.9c0,0-4.1,4.4-4,6.2c0.1,1.7,1.1,5.9,4.2,6.1c3,0.2,4.8-2,4.8-2L58.9,80.9z"/>
</g>
</svg>
