<?xml version="1.0" encoding="utf-8"?>
<!-- Generator: Adobe Illustrator 26.1.0, SVG Export Plug-In . SVG Version: 6.00 Build 0)  -->
<svg version="1.1" id="Layer_1" xmlns="http://www.w3.org/2000/svg" xmlns:xlink="http://www.w3.org/1999/xlink" x="0px" y="0px"
	 viewBox="0 0 595.3 841.9" style="enable-background:new 0 0 595.3 841.9;" xml:space="preserve">
<style type="text/css">
	.st0{fill:#FFFFFF;stroke:#000000;stroke-miterlimit:10;}
	.st1{fill:#FFF200;stroke:#000000;stroke-width:0.5;stroke-miterlimit:10;}
	.st2{fill:#00AEEF;stroke:#000000;stroke-width:0.5;stroke-miterlimit:10;}
	.st3{stroke:#000000;stroke-width:0.5;stroke-miterlimit:10;}
</style>
<circle class="st0" cx="119.7" cy="105" r="48"/>
<polyline class="st1" points="119.6,110.8 116.4,119.4 120.1,119.4 117.4,125.4 120.1,125.5 118.7,133.4 127.3,122.8 123.8,122.9 
	127.7,116.3 123.5,116.1 128.1,110.7 "/>
<polyline class="st1" points="113.4,109.1 111.8,113.6 113.7,113.6 112.3,116.7 113.7,116.8 113,120.9 117.3,115.4 115.5,115.4 
	117.5,112 115.4,111.9 117.6,109 "/>
<path class="st2" d="M111.7,88.7c0,0-0.6-1-7.1,0.1c-4.8,0.8-4.4,3.9-3.8,5.4c0.1,0.4-0.2,0.8-0.6,0.8c-0.8-0.1-1.9-0.2-2.7-0.2
	c-2.2,0-3,2.3-2.5,4.1c0.3,1.3-4.4-2-6.2,1.4s-0.5,7.1,2.5,7.2c3,0.2,4.3-1.1,4.8-1.1s0.3,3.8,3.3,2.9c2.9-0.8,1.4,2.5,6.6-0.6
	c0.1,0,0.2,0,0.2,0.1c0.1,0.6,0.7,2.7,2.2,2.6c1.8-0.1,3,1.7,6.4-0.8c0.3-0.2,0.7-0.1,0.9,0.2c0.4,0.8,1.2,2,2.9,2.1
	c1.8,0.1,3.5-0.8,4.4-1.3c0.3-0.2,0.6-0.1,0.8,0.2c0.3,0.5,1.1,1.1,2.9,1.1c2,0,2.4-1.6,2.4-2.5c0-0.4,0.3-0.6,0.7-0.6
	c0.6,0.1,1.5,0.2,1.9-0.2c0.8-0.6,1.5-0.6,1.5-2.9c0-0.2,0.1-0.4,0.3-0.5c0.3-0.1,0.8-0.4,1.1-1c0.3-0.5,0.9-0.7,1.4-0.4
	c1.6,1.1,4.9,2.4,8.7,1.9c5-0.6,6.1-5.7,6.1-6.3c0,0,0,0,0,0c0-0.4-0.1-5.5-1.5-7.2c-1.3-1.5-1.5-3-8-0.8c0,0-0.1,0-0.1,0.1
	l-2.9,1.8c-0.1,0,0.1-7.6-3.4-7.4c-2,0.1-3.7,1.6-4.8,2.8c-0.4,0.4-1,0.1-1-0.4c0.1-2.8-0.6-7.5-6.7-6.5c-6.2,1-7.9,5.9-8.3,8.7
	C113.7,93,113,89.1,111.7,88.7z"/>
<path class="st2" d="M106.2,109c0,0,0.1-3.1,1.6-4.8c1.4-1.6,1.7-1.7,4.9,0.5c0.2,0.2,0.5,0,0.5-0.3c-0.2-1.2-0.3-3.4,1.6-3.6
	c2.1-0.2,2.3-0.1,3.2,1.1c0.2,0.3,0.7,0.2,0.8-0.2c0.2-1.6,1.2-4.2,4.9-3.9c5.2,0.4,4.3,5.6,4.3,5.6s4.9,0.3,5.3,3.5"/>
<path class="st3" d="M103.4,113.2"/>
<path class="st2" d="M101.1,119.1"/>
<path class="st2" d="M102.1,116.7"/>
<path class="st3" d="M110.9,125.8"/>
<path class="st3" d="M111.8,123.4"/>
<path class="st3" d="M110.6,127"/>
<path class="st3" d="M108.4,132.7"/>
<path class="st3" d="M109.3,130.3"/>
<path class="st3" d="M122.4,123.8"/>
<path class="st3" d="M133.5,121.1"/>
<path class="st3" d="M134.4,118.7"/>
<path class="st3" d="M132.3,125"/>
<path class="st3" d="M133.2,122.6"/>
<path class="st1" d="M117.1,112.7"/>
</svg>
