<?xml version="1.0" encoding="utf-8"?>
<!-- Generator: Adobe Illustrator 26.1.0, SVG Export Plug-In . SVG Version: 6.00 Build 0)  -->
<svg version="1.1" id="Layer_1" xmlns="http://www.w3.org/2000/svg" xmlns:xlink="http://www.w3.org/1999/xlink" x="0px" y="0px"
	 viewBox="0 0 595.3 841.9" style="enable-background:new 0 0 595.3 841.9;" xml:space="preserve">
<style type="text/css">
	.st0{fill:none;stroke:#000000;stroke-miterlimit:10;}
	.st1{fill:url(#SVGID_1_);stroke:#000000;stroke-miterlimit:10;}
	.st2{fill:#FFFFFF;stroke:#000000;stroke-miterlimit:10;}
</style>
<circle class="st0" cx="132" cy="96" r="48"/>
<linearGradient id="SVGID_1_" gradientUnits="userSpaceOnUse" x1="109.6586" y1="97.1284" x2="163.5108" y2="97.1284">
	<stop  offset="0" style="stop-color:#FFFFFF"/>
	<stop  offset="1" style="stop-color:#000000"/>
</linearGradient>
<path class="st1" d="M163.5,110.7V83.4c0,0-0.2-4-2.3-4.7c-2.1-0.7-48.5,0-48.5,0s-3.1,1.3-3,3.5c0.1,2.2,0,28.5,0,28.5
	s-0.2,2.4,3,4.3c3.3,1.9,46.9,0,46.9,0S162.8,114,163.5,110.7z"/>
<path class="st2" d="M149.4,105.9V88.2c0,0-0.2-2.6-1.5-3c-1.4-0.5-31.3,0-31.3,0s-2,0.8-2,2.3c0.1,1.4,0,18.4,0,18.4
	s-0.1,1.6,2,2.8s30.3,0,30.3,0S148.9,108,149.4,105.9z"/>
<polyline class="st0" points="127.7,69.8 136.6,77.8 150.8,64 "/>
<circle class="st2" cx="156.4" cy="91.8" r="2.9"/>
<circle class="st2" cx="156.4" cy="101.8" r="2.9"/>
</svg>
