<?xml version="1.0" encoding="utf-8"?>
<!-- Generator: Adobe Illustrator 26.1.0, SVG Export Plug-In . SVG Version: 6.00 Build 0)  -->
<svg version="1.1" id="Layer_1" xmlns="http://www.w3.org/2000/svg" xmlns:xlink="http://www.w3.org/1999/xlink" x="0px" y="0px"
	 viewBox="0 0 595.3 841.9" style="enable-background:new 0 0 595.3 841.9;" xml:space="preserve">
<style type="text/css">
	.st0{fill:#FFFFFF;stroke:#000000;stroke-miterlimit:10;}
	.st1{fill:#CEE4F5;}
	.st2{fill:#AAC089;}
	.st3{opacity:0.24;fill:none;stroke:#000000;stroke-width:1.000000e-02;stroke-miterlimit:10;}
	.st4{opacity:0.2;fill:none;stroke:#000000;stroke-width:1.000000e-02;stroke-miterlimit:10;}
	.st5{fill:none;stroke:#754C29;stroke-width:1.000000e-02;stroke-miterlimit:10;}
	.st6{opacity:0.2;fill:none;stroke:#000000;stroke-width:3.000000e-02;stroke-miterlimit:10;}
	.st7{fill:none;stroke:#000000;stroke-width:3.000000e-02;stroke-miterlimit:10;}
	.st8{fill:none;stroke:#000000;stroke-width:1.000000e-02;stroke-miterlimit:10;}
</style>
<circle class="st0" cx="114" cy="72.3" r="48"/>
<path class="st1" d="M116,63.6c0,0-7.8,0.9-10.1,3.7s-12.5,9.5-12.5,9.5s-3.8,2-8.8,1.3s-4.9-7.1-4.9-7.1s1.2-6.5,5.1-6.7
	c3.8-0.3,4.2-0.2,4.2-0.2s-1.8-3.3-7.6-0.4c-5.8,3-4.4,10.5-4.4,10.5s1.3,5.4,6.8,7c5.4,1.6,14.9-3.4,18.1-7
	C105,70.6,116,63.6,116,63.6z"/>
<path class="st1" d="M112,59.6l-9.8,4.8c0,0,2-2.7,3.6-3.6C107.4,59.9,112,59.6,112,59.6z"/>
<path class="st2" d="M108.3,84.3c-0.3,0.1-0.5,0.5-0.6,0.8c-0.4,0.9-0.7,1.7-1.1,2.6c-0.2,0.4-0.4,0.9-0.6,1.3
	c-0.6,0.8-1.4,1.3-2.3,1.8c1.6,0.1,3.3-0.2,4.6-1.3c0.9-0.7,1.4-1.8,1.5-2.9C109.8,85.9,109.5,83.9,108.3,84.3z"/>
<path class="st1" d="M149.9,63.7c-0.2,0.5-0.4,1-0.7,1.5c-0.4,0.5-0.8,1-1.3,1.4c-2.2,2-4.4,4.1-7.1,5.2c-4.9,2-10.6,0.8-15.5,2.9
	c-1.7,0.7-3.2,1.8-4.6,3c-3,2.5-5.6,5.7-6.6,9.5c0.7-1.6,1.8-3,3-4.2c1-0.9,2-1.8,3.2-2.5c1.2-0.7,2.5-1.2,3.8-1.7
	c2.9-1.1,5.8-2.3,8.9-2.8c2.3-0.4,4.6-0.3,6.8-0.7c2.3-0.4,4.5-1.2,6.1-2.8c0.9-1,1.6-2.3,2.5-3.3c0.7-0.8,1.7-1.6,2.1-2.6
	c0.7-1.6,0.1-3.5,0.4-5.2C150.5,62.1,150.2,62.9,149.9,63.7z"/>
<path class="st2" d="M146.5,75.9c-0.2,0.2-0.4,0.5-0.6,0.8c-1,1.2-2.6,1.8-4.1,1.9c0.8,0.2,1.5,0.7,2.3,1c0.9,0.3,1.9,0.1,2.7-0.5
	c0.7-0.5,1.5-1.6,1.6-2.5C148.5,75.5,147.2,75.3,146.5,75.9z"/>
<path class="st2" d="M127.8,60.6c-1,1.2-2.5,2-4.1,2.2c-0.3,0-0.6,0-0.9-0.1c-0.3-0.1-0.5-0.3-0.6-0.6c-0.4-0.4-0.7-0.8-1.1-1.3
	c-0.1-0.1-0.2-0.2-0.2-0.3c-0.1-0.3,0.1-0.6,0.3-0.8c0.2-0.2,0.5-0.3,0.8-0.3c1.5-0.4,3-0.7,4.6-1.1c0.6-0.2,1.2-0.3,1.8-0.6
	c0.6-0.3,0.9-0.7,1.2-1.3C129.5,57.8,128.7,59.5,127.8,60.6z"/>
<path class="st1" d="M124.6,72.3c-2.4,0.9-4.6,2.3-6.4,4c0.1-0.6,0.5-1.1,0.8-1.5c1.5-1.8,3.3-3.4,5.5-4.2c1.6-0.6,3.4-0.6,5.1-1.1
	c0.8-0.2,1.5-0.5,2.3-0.6c0.8-0.1,1.5-0.1,2.3-0.1c0.6,0,3.4-0.3,3.7,0.2c-1.9,1.1-4.5,1.4-6.6,1.8c-1.1,0.2-2.2,0.4-3.4,0.6
	c-0.6,0.1-1.1,0.3-1.7,0.4C125.7,72,125.1,72.3,124.6,72.3z"/>
<path class="st2" d="M92.8,69.3c-0.4-0.2-0.9,0-1.3,0.3s-0.6,0.7-0.8,1.1c-0.9,1.2-2.5,1.8-3.9,1.6c0.8,0.6,1.6,1,2.4,1.4
	c0.8,0.3,1.6,0.6,2.4,0.5c0.8,0,1.7-0.4,2.1-1.1c0.5-0.7,0.2-1.3-0.1-2.1C93.4,70.4,93.5,69.6,92.8,69.3z"/>
<path class="st1" d="M130.4,63.5c-4.9,1-9.6,2.9-13.7,5.6c-2.8,1.8-5.3,4-7.8,6.2c-1.1,0.9-2.1,1.8-3,2.9c-1.2,1.4-2,3.1-3.2,4.5
	c-0.5,0.5-1,1-1.5,1.4c-2.1,1.9-4.3,3.8-6.8,5.1c-1.9,1-3.9,1.6-5.9,2.1c2.2,0.5,4.6,1,6.7,0.4c1.1-0.3,2.1-0.9,3-1.5
	c3.5-2.5,6-6.2,9.1-9.1c3-2.8,6.7-5,9.9-7.5c2.8-2.2,5.4-4.8,8.3-6.8c1.4-1,2.9-1.8,4.4-2.5c0.8-0.3,1.6-0.6,2.4-0.8
	c0.6-0.1,1.4-0.1,1.9-0.5C133,63,131.6,63.3,130.4,63.5z"/>
<path class="st1" d="M97.4,81.4c-2.1,1.2-4.2,2.5-6.5,3.2c-1.2,0.3-2.3,0.5-3.5,0.7c-1.5,0.2-3.1,0.3-4.6-0.2
	c-1.4-0.5-2.5-1.7-3.6-2.8c2.8,0.6,5.6,1.3,8.4,1.4c2.8,0.1,5.8-0.3,8.3-1.6"/>
<path class="st3" d="M93.5,71.1c-0.4,0.3-0.8,0.4-1.2,0.7c-0.1,0-0.1,0.1-0.2,0.1C92.1,72,92.1,72,92,72c-0.1-0.1-0.3-0.2-0.4-0.3
	c-0.1-0.1-0.2-0.1-0.2-0.2c0-0.1-0.1-0.2-0.1-0.3c-0.1-0.4-0.2-0.8-0.2-1.2"/>
<path class="st4" d="M90.5,70.9c0,0.2,0,0.4,0,0.6c0.1,0.2,0.2,0.4,0.3,0.5c0.1,0.1,0.3,0.2,0.5,0.4"/>
<path class="st4" d="M89.7,71.6c0,0.2,0,0.4,0.1,0.6s0.3,0.3,0.5,0.4"/>
<path class="st4" d="M88.9,72c0,0.3,0.2,0.6,0.5,0.8"/>
<path class="st4" d="M88,72.3c0,0,0,0.1,0,0.1c0.1,0.1,0.2,0.3,0.3,0.4c0.1,0.1,0.2,0.2,0.4,0.3"/>
<path class="st4" d="M92.1,74.2c-0.2,0-0.4-0.2-0.5-0.3s-0.2-0.4-0.3-0.5c0-0.2-0.1-0.3-0.1-0.5c0-0.1-0.1-0.4,0-0.4
	c0,0,0.2-0.1,0.2-0.1c0.1,0,0.1-0.1,0.2-0.1c0.1-0.1,0.3-0.2,0.4-0.2c0,0.4,0.1,0.9,0.3,1.2c0.1,0.1,0.2,0.3,0.3,0.4
	c0.1,0.1,0.3,0.2,0.4,0.2"/>
<path class="st4" d="M90.3,72.6c0,0.2,0,0.3,0,0.5c0,0.1,0.1,0.2,0.1,0.3c0.2,0.3,0.4,0.6,0.6,0.8"/>
<path class="st4" d="M89.4,72.8c0,0.2,0,0.4,0.1,0.6c0.1,0.2,0.1,0.4,0.3,0.5c0,0,0,0,0.1,0.1c0,0,0,0,0-0.1"/>
<path class="st4" d="M88.7,73c0,0.1,0,0.2,0,0.3c0,0,0.1,0.1,0.1,0.1c0.2,0.1,0.3,0.2,0.5,0.3"/>
<path class="st4" d="M91.3,72.4c-0.3,0-0.6,0.2-0.9,0.2c-0.3,0.1-0.7,0.1-1,0.2c-0.1,0-0.2,0-0.2,0.1c-0.1,0-0.2,0.1-0.3,0.1
	c-0.2,0.1-0.5,0.1-0.8,0.1c-0.1,0-0.1,0-0.2-0.1c-0.1,0-0.1-0.1-0.1-0.1c-0.1-0.1-0.3-0.2-0.4-0.4c-0.1-0.1-0.1-0.1-0.2-0.2
	c-0.1,0-0.2,0-0.3-0.1"/>
<path class="st5" d="M93.5,71.1c0.1-0.2,0.3-0.4,0.4-0.5c0.1-0.1,0.2-0.2,0.3-0.4c0-0.1,0-0.2,0-0.3"/>
<path class="st6" d="M110.2,81.4c-1,0.6-1.6,1.7-1.5,2.9c0,0.6-0.3,1.2-0.5,1.7c-0.1,0.3-0.3,0.6-0.5,0.9c-0.5,0.8-0.8,1.8-1.4,2.5
	c-0.6,0.8-1.6,1.3-2.6,1.4"/>
<path class="st6" d="M108.6,85c0,0.2,0.1,0.5,0.2,0.7c0.1,0.2,0.3,0.4,0.4,0.5c0.2,0.2,0.3,0.4,0.5,0.6"/>
<path class="st6" d="M108.1,86.2c0,0.4,0.2,0.8,0.4,1.2c0.2,0.4,0.5,0.7,0.8,1"/>
<path class="st6" d="M107.4,87.4c0.3,0.5,0.4,1.2,0.6,1.7c0,0.1,0.1,0.3,0.3,0.3"/>
<path class="st6" d="M106.9,88.5c0,0.4,0,0.8,0,1.2c0,0.1,0,0.2,0,0.3s0.1,0.2,0.2,0.2"/>
<path class="st6" d="M106.2,89.4c0,0.4,0,0.8-0.2,1.2"/>
<path class="st6" d="M105.6,90.1c0,0.2,0,0.4-0.1,0.5c0,0-0.1,0.1-0.1,0.1"/>
<path class="st6" d="M108.4,85.5c-0.2,0.2-0.3,0.3-0.5,0.5c-0.1,0.1-0.1,0.1-0.2,0.2c-0.1,0.1-0.1,0.2-0.1,0.2
	c-0.2,0.3-0.4,0.5-0.7,0.6"/>
<path class="st6" d="M107.6,87.1c-0.2,0-0.3,0.1-0.4,0.2c-0.1,0.1-0.2,0.2-0.3,0.4c-0.1,0.1-0.1,0.2-0.2,0.3c0,0-0.1,0.1-0.1,0.1
	c0,0-0.1,0.1-0.1,0"/>
<path class="st6" d="M107,88.4c-0.1,0-0.2,0.1-0.2,0.1c-0.2,0.3-0.3,0.6-0.6,0.8c-0.2,0.1-0.4,0.2-0.5,0.2"/>
<path class="st6" d="M105.7,90c-0.1,0-0.3,0-0.4,0c-0.1,0-0.2,0.1-0.2,0.2c-0.1,0.1-0.2,0.1-0.3,0"/>
<path class="st6" d="M129.6,56.5c-0.1,0.8-0.7,1.5-1.1,2.1c-1,1.4-2.4,2.3-4.1,2.7c-0.8,0.2-1.6,0.4-2.5,0.4"/>
<path class="st6" d="M122.1,59.4c0,0.5,0,1.1,0,1.6c0,0.1,0,0.3,0,0.4c0,0.1,0.1,0.3,0.3,0.3"/>
<path class="st6" d="M123.2,59.2c0,0.8,0.2,1.7,0.4,2.5c-0.1,0.1-0.1,0.3,0,0.4c0.1,0.1,0.3,0,0.3-0.2c0-0.2-0.2-0.3-0.3-0.2"/>
<path class="st6" d="M124.7,58.8c0,0.5,0.1,0.9,0.2,1.4c0,0.2,0.1,0.4,0.1,0.5c0.1,0.2,0.2,0.3,0.3,0.4"/>
<path class="st6" d="M126,58.5c0,0.4,0,0.8,0.1,1.1c0,0.1,0.1,0.2,0.2,0.3c0.1,0.2,0.2,0.3,0.2,0.5"/>
<path class="st6" d="M127.1,58.2c0.1,0.5,0.3,1,0.5,1.5"/>
<path class="st6" d="M128.5,57.7c-0.1,0.4,0,0.9-0.2,1.3"/>
<path class="st6" d="M124.4,61.4c0.2,0.5,0.7,0.8,1.2,0.9"/>
<path class="st6" d="M125.9,60.9c0.1,0.1,0.2,0.2,0.3,0.3c0.1,0.1,0.2,0.1,0.3,0.1c0.1,0,0.1,0,0.2,0c0.1,0,0.2,0,0.4,0"/>
<path class="st6" d="M127.1,60.1c0.1,0.1,0.3,0.1,0.4,0.2s0.3,0.1,0.4,0.1"/>
<path class="st6" d="M128,59.3c0.2,0.1,0.5,0.1,0.7,0.1"/>
<path class="st6" d="M123,61.7c0.1,0.2,0.3,0.4,0.5,0.5c0.2,0.1,0.4,0.2,0.7,0.2c0.2,0,0.4,0.1,0.6,0.1"/>
<path class="st7" d="M122,61.8c-0.7,0.5-1.5,0.8-2.4,0.7"/>
<path class="st4" d="M148,75.7c-0.5,1.2-1.4,2.1-2.4,2.8c-0.2,0.1-0.5,0.3-0.7,0.3c-0.3,0.1-0.6,0.1-0.9,0.1c-0.2,0-0.5,0-0.7,0
	c-0.5-0.1-0.9-0.3-1.4-0.3"/>
<path class="st4" d="M147.7,76.3c-0.3,0.1-0.6,0.2-0.9,0.3c-0.3,0.1-0.6,0.1-0.9,0"/>
<path class="st4" d="M146.9,77.4c-0.3,0-0.5,0.1-0.8,0.1c-0.3,0-0.6,0-0.8-0.2"/>
<path class="st4" d="M145.8,78.3c-0.5,0.1-1-0.1-1.3-0.5"/>
<path class="st4" d="M143.7,78.1c0.1,0.2,0.3,0.4,0.5,0.5c0.1,0,0.2,0.1,0.3,0.1c0.2,0,0.4,0.1,0.6,0.1"/>
<path class="st4" d="M142.8,78.4c0.2,0.2,0.4,0.3,0.6,0.4c0,0,0.1,0,0.1,0c0.1,0,0.1,0.1,0.2,0.1"/>
<path class="st4" d="M144.2,78.9c0,0.1,0,0.1-0.1,0.2c-0.1,0.1-0.1,0.1-0.2,0.1c-0.1,0-0.1,0-0.2,0c-0.1,0-0.1,0-0.2,0"/>
<path class="st4" d="M145.3,78.6c0,0.1,0,0.2-0.1,0.3s-0.1,0.2-0.2,0.3c-0.1,0.1-0.2,0.2-0.3,0.3"/>
<path class="st4" d="M146.3,78c0,0.5-0.1,1-0.3,1.5"/>
<path class="st4" d="M147.3,76.8c0,0.4,0,0.8-0.1,1.3c0,0.2-0.1,0.4-0.1,0.6"/>
<path class="st8" d="M148,75.7c0,0,0-0.1,0.1-0.1c0.1-0.2,0.3-0.3,0.5-0.4"/>
</svg>
